<svg width="18" height="27" viewBox="0 0 18 27" fill="none" xmlns="http://www.w3.org/2000/svg">
<path d="M9.00025 1.24309e-05C7.34547 0.00849865 5.76207 0.672852 4.59826 1.84877C3.43445 3.02472 2.78464 4.61405 2.79315 6.26878V9.77605H0.620706C0.277615 9.77605 8.26965e-06 10.0537 8.26965e-06 10.3967V22.8108C-0.00120395 23.0472 0.130938 23.2629 0.341889 23.3696L6.85921 26.5036C8.22062 27.1655 9.81116 27.1655 11.1724 26.5036L17.6581 23.3696C17.8691 23.263 18.0012 23.0472 18 22.8108V10.3967C18 10.2319 17.9345 10.0743 17.8181 9.95788C17.7018 9.8415 17.5442 9.77604 17.3793 9.77604H15.2068V6.26877C15.2153 4.61398 14.5655 3.02467 13.4017 1.84876C12.2379 0.672809 10.6546 0.00847257 8.99974 0L9.00025 1.24309e-05ZM4.03467 6.26878C4.03467 4.49519 4.98148 2.85617 6.51746 1.96888C8.05344 1.08158 9.94712 1.08146 11.483 1.96888C13.019 2.85629 13.9658 4.49531 13.9658 6.26878V9.77605H4.03467V6.26878ZM16.759 22.407L10.6138 25.3869C9.59544 25.8815 8.40494 25.8815 7.38674 25.3869L1.24153 22.4385V11.0173H16.759V22.407Z" fill="#43464E"/>
<path d="M9.02024 21.1298C9.22211 21.1298 9.4151 21.0497 9.5576 20.9072C9.7001 20.7647 9.78025 20.5717 9.78025 20.3698V17.3298C9.78025 16.9097 9.44033 16.5698 9.02025 16.5698C8.60018 16.5698 8.26025 16.9097 8.26025 17.3298V20.3698C8.26025 20.5717 8.34041 20.7647 8.48291 20.9072C8.62541 21.0497 8.81838 21.1298 9.02027 21.1298H9.02024Z" fill="#43464E"/>
</svg>
