<svg id="Layer_1" data-name="Layer 1" xmlns="http://www.w3.org/2000/svg" viewBox="0 0 1400 300"><defs><style>.cls-1{fill:#668f72;}.cls-2{fill:#355644;}</style></defs><path class="cls-1" d="M240.66,146.16c0,22-3.17,40.37-19.5,59.65C205.28,224.41,185.55,233,159.69,233c-54.21,0-88.23-40.15-88.23-86.42,0-45.81,35.84-84.37,87.32-84.37,32.21,0,52.85,11.34,70.31,30.39l-21.77,21.55C193.49,99.66,178.29,92,159,92c-32.66,0-56.25,25-56.25,55.12,0,31.53,25.63,56.25,58.29,56.25,21.55,0,35.84-8.85,44.68-27.67H158.56V146.16Z"/><path class="cls-1" d="M290.56,123.71c5.67-12.48,15.42-18.38,25.4-18.38a28.44,28.44,0,0,1,13.16,3.18l-9.31,25.86a21.13,21.13,0,0,0-8.84-2.5c-8.62,0-15.42,10-16.1,27.67-.23,6.58-.23,14.07-.23,20.64V229H264.47V108.51h26.09Z"/><path class="cls-1" d="M460.89,205.59C448,224,431,232.12,405.55,232.12c-38.33,0-63.06-28.12-63.06-63.5,0-32.89,23.82-63.29,62.6-63.29,38.11,0,64,27.22,64,65.33,0,2.72-.23,4.08-.23,6.8H371.75c2.95,17.92,16.56,27.9,33.8,27.9,12.93,0,21.55-3.63,29.94-11.79Zm-22.23-51.94c-4.08-14.07-17-22.69-33.11-22.69-15,0-26.54,7.49-32.44,22.69Z"/><path class="cls-1" d="M611.72,205.59c-12.93,18.37-29.94,26.53-55.34,26.53-38.34,0-63.06-28.12-63.06-63.5,0-32.89,23.82-63.29,62.6-63.29,38.11,0,64,27.22,64,65.33,0,2.72-.22,4.08-.22,6.8H522.58c2.95,17.92,16.56,27.9,33.8,27.9,12.93,0,21.54-3.63,29.94-11.79Zm-22.23-51.94c-4.08-14.07-17-22.69-33.11-22.69-15,0-26.54,7.49-32.44,22.69Z"/><path class="cls-1" d="M679.76,120.76c11.57-9.75,22.23-15.43,35.61-15.43,22.45,0,41.28,15.43,41.28,41.28V229H726.48V172c0-23.82-2-39-20.41-39-8.39,0-15.65,4.08-20.41,11.56-6.13,9.76-5.9,20.64-5.9,33.12V229H649.59V108.51h30.17Z"/><path class="cls-2" d="M1032.44,78.8a19.26,19.26,0,0,1-19.28,19.28c-11.11,0-19.28-9.76-19.28-20.87,0-10.43,8.85-18.37,19.28-18.37C1024.05,58.84,1032.44,67.91,1032.44,78.8Zm-34.25,29.71h30.17V229H998.19Z"/><path class="cls-2" d="M1091.41,120.76c11.57-9.75,22.23-15.43,35.61-15.43,22.46,0,41.28,15.43,41.28,41.28V229h-30.16V172c0-23.82-2.05-39-20.42-39-8.39,0-15.65,4.08-20.41,11.56-6.13,9.76-5.9,20.64-5.9,33.12V229h-30.17V108.51h30.17Z"/><path class="cls-2" d="M1292.14,216.25c-10.67,10.43-22,15.87-37.2,15.87-30.62,0-57.39-26.31-57.39-63.28,0-37.65,25.4-63.51,56.71-63.51,14.51,0,27,5.45,37.88,16.33V62h30.16V229h-30.16ZM1228,168.62c0,20.64,13.6,35.83,32.43,35.83,18.6,0,33.12-14.06,33.12-36.06,0-21.09-14.07-35.38-33.12-35.38C1240.42,133,1228,148.88,1228,168.62Z"/><path class="cls-2" d="M926.55,167.87c0-27.8.45-59,1.16-77.38h-1.13C918.93,123.73,902.63,178,887,229H857C845.13,184.42,828.28,122.58,821.13,90H820c1.39,19.12,2.07,52.65,2.07,80.59V229H790V66.05h52.43c12.7,42.58,26.94,96,31.83,120.27h.27c4-21.42,21.89-78.52,35.48-120.27h50.53V229h-34Z"/></svg>