<svg id="Layer_1" data-name="Layer 1" xmlns="http://www.w3.org/2000/svg" viewBox="0 0 800 500"><defs><style>.cls-1{fill:#fff;}.cls-2{fill:#668f72;}.cls-3{fill:#355644;}</style></defs><path class="cls-1" d="M219.13,132.22c0,22-3.18,40.37-19.51,59.65-15.88,18.6-35.61,27.22-61.47,27.22-54.2,0-88.23-40.15-88.23-86.42,0-45.81,35.84-84.37,87.33-84.37,32.21,0,52.84,11.34,70.31,30.39l-21.78,21.55C172,85.72,156.75,78,137.47,78,104.81,78,81.22,103,81.22,133.12c0,31.53,25.63,56.26,58.3,56.26,21.54,0,35.83-8.85,44.68-27.68H137V132.22Z"/><path class="cls-1" d="M263.35,109.76c5.67-12.47,15.42-18.37,25.4-18.37a28.44,28.44,0,0,1,13.16,3.18l-9.3,25.85a21.32,21.32,0,0,0-8.85-2.49c-8.62,0-15.42,10-16.1,27.67-.23,6.58-.23,14.06-.23,20.64V215H237.27V94.57h26.08Z"/><path class="cls-1" d="M428,191.64c-12.92,18.38-29.94,26.54-55.34,26.54-38.33,0-63.05-28.12-63.05-63.51,0-32.89,23.81-63.28,62.6-63.28,38.1,0,64,27.22,64,65.32,0,2.73-.23,4.09-.23,6.81H338.88c2.94,17.92,16.55,27.9,33.79,27.9,12.93,0,21.55-3.63,29.94-11.8ZM405.79,139.7c-4.09-14.06-17-22.68-33.12-22.68-15,0-26.54,7.49-32.43,22.68Z"/><path class="cls-1" d="M573.17,191.64c-12.93,18.38-29.94,26.54-55.34,26.54-38.33,0-63.06-28.12-63.06-63.51,0-32.89,23.82-63.28,62.6-63.28,38.11,0,64,27.22,64,65.32,0,2.73-.23,4.09-.23,6.81H484c3,17.92,16.56,27.9,33.8,27.9,12.93,0,21.55-3.63,29.94-11.8ZM550.94,139.7c-4.08-14.06-17-22.68-33.11-22.68-15,0-26.54,7.49-32.44,22.68Z"/><path class="cls-1" d="M635.54,106.82c11.57-9.76,22.23-15.43,35.61-15.43,22.46,0,41.28,15.43,41.28,41.28V215H682.27V158.07c0-23.81-2-39-20.42-39-8.39,0-15.65,4.09-20.41,11.57-6.13,9.75-5.9,20.64-5.9,33.11V215H605.37V94.57h30.17Z"/><path class="cls-1" d="M339.11,275.2a19.26,19.26,0,0,1-19.28,19.28c-11.11,0-19.28-9.75-19.28-20.87,0-10.43,8.85-18.37,19.28-18.37C330.72,255.24,339.11,264.31,339.11,275.2Zm-34.24,29.71H335V425.35H304.87Z"/><path class="cls-1" d="M402.45,317.16c11.56-9.75,22.22-15.42,35.61-15.42,22.45,0,41.27,15.42,41.27,41.28v82.33H449.17V368.42c0-23.81-2-39-20.41-39-8.4,0-15.65,4.08-20.42,11.57-6.12,9.75-5.89,20.64-5.89,33.11v51.26H372.28V304.91h30.17Z"/><path class="cls-1" d="M606.11,412.65c-10.66,10.43-22,15.88-37.2,15.88-30.62,0-57.38-26.31-57.38-63.28,0-37.66,25.4-63.51,56.7-63.51,14.52,0,27,5.44,37.88,16.33V258.42h30.17V425.35H606.11ZM541.92,365c0,20.64,13.61,35.84,32.44,35.84,18.59,0,33.11-14.07,33.11-36.07,0-21.09-14.06-35.38-33.11-35.38C554.4,329.41,541.92,345.29,541.92,365Z"/><path class="cls-1" d="M266.26,261.58V425.36H236.65V351.72c0-7.69,0-18,.1-28.71-7.64,20.46-17.08,44.75-25.91,67.44-4.13,10.6-8.11,20.86-11.72,30.25l-1.8,4.66H173l-3.54-9.61c-8.62-23.46-21.72-59.15-32.18-88.8.13,10,.2,20.21.2,29.43v69H108.2V261.58h35.08l1.8,4.65c14.29,37.06,31.49,83.26,41.27,111.16,10.51-28.44,30-78,43.58-111.28l1.85-4.53Z"/><path class="cls-2" d="M238,143.81c0,22-3.18,40.37-19.51,59.65-15.87,18.6-35.61,27.22-61.46,27.22-54.21,0-88.23-40.15-88.23-86.42,0-45.82,35.83-84.38,87.32-84.38,32.21,0,52.85,11.35,70.31,30.4l-21.77,21.55c-13.84-14.52-29-22.23-48.31-22.23-32.66,0-56.25,25-56.25,55.11,0,31.53,25.63,56.26,58.29,56.26,21.55,0,35.83-8.85,44.68-27.68H155.84V143.81Z"/><path class="cls-2" d="M282.17,121.35C287.84,108.88,297.6,103,307.58,103a28.4,28.4,0,0,1,13.15,3.18L311.43,132a21.32,21.32,0,0,0-8.84-2.49c-8.62,0-15.43,10-16.11,27.67-.23,6.58-.23,14.06-.23,20.64V226.6H256.09V106.16h26.08Z"/><path class="cls-2" d="M446.84,203.23c-12.93,18.37-29.94,26.54-55.34,26.54-38.34,0-63.06-28.12-63.06-63.51,0-32.89,23.81-63.28,62.6-63.28,38.11,0,64,27.22,64,65.32,0,2.73-.22,4.09-.22,6.81H357.7C360.65,193,374.26,203,391.5,203c12.92,0,21.54-3.63,29.94-11.8Zm-22.23-51.94c-4.08-14.06-17-22.68-33.11-22.68-15,0-26.54,7.49-32.44,22.68Z"/><path class="cls-2" d="M592,203.23c-12.92,18.37-29.94,26.54-55.34,26.54-38.33,0-63-28.12-63-63.51,0-32.89,23.81-63.28,62.6-63.28,38.1,0,64,27.22,64,65.32,0,2.73-.23,4.09-.23,6.81H502.86C505.81,193,519.41,203,536.65,203c12.93,0,21.55-3.63,29.94-11.8Zm-22.22-51.94c-4.09-14.06-17-22.68-33.12-22.68-15,0-26.53,7.49-32.43,22.68Z"/><path class="cls-2" d="M654.36,118.4C665.93,108.65,676.59,103,690,103c22.45,0,41.27,15.42,41.27,41.28V226.6H701.09V169.66c0-23.81-2-39-20.42-39-8.39,0-15.64,4.09-20.41,11.57-6.12,9.75-5.9,20.64-5.9,33.11V226.6H624.2V106.16h30.16Z"/><path class="cls-3" d="M357.94,286.79a19.26,19.26,0,0,1-19.28,19.28c-11.12,0-19.28-9.75-19.28-20.87,0-10.43,8.84-18.37,19.28-18.37C349.55,266.83,357.94,275.9,357.94,286.79ZM323.69,316.5h30.16V436.94H323.69Z"/><path class="cls-3" d="M421.27,328.75c11.57-9.75,22.23-15.42,35.61-15.42,22.45,0,41.28,15.42,41.28,41.28v82.33H468V380c0-23.82-2-39-20.41-39-8.39,0-15.65,4.08-20.42,11.56-6.12,9.76-5.89,20.65-5.89,33.12v51.26H391.1V316.5h30.17Z"/><path class="cls-3" d="M624.93,424.24c-10.66,10.43-22,15.88-37.19,15.88-30.62,0-57.39-26.32-57.39-63.29,0-37.65,25.4-63.5,56.71-63.5,14.51,0,27,5.44,37.87,16.33V270H655.1V436.94H624.93Zm-64.19-47.63c0,20.64,13.61,35.83,32.44,35.83,18.6,0,33.11-14.06,33.11-36.06,0-21.09-14.06-35.38-33.11-35.38C573.22,341,560.74,356.88,560.74,376.61Z"/><path class="cls-3" d="M285.08,273.16V437h-29.6V363.31c0-7.69,0-18,.09-28.71-7.64,20.46-17.08,44.75-25.91,67.43-4.13,10.61-8.11,20.87-11.72,30.26l-1.8,4.66H191.85l-3.54-9.61c-8.61-23.46-21.71-59.15-32.17-88.81.12,10.05.19,20.22.19,29.44v69H127V273.16h35.09l1.79,4.66c14.29,37.06,31.5,83.26,41.28,111.16,10.5-28.44,30-78,43.58-111.28l1.84-4.54Z"/></svg>