<svg width="97" height="54" viewBox="0 0 97 54" fill="none" xmlns="http://www.w3.org/2000/svg">
<path d="M0.5 19.5178V46.5V53.5H92C94.7614 53.5 97 51.2614 97 48.5V41.8126C97 41.2792 96.8676 40.7542 96.6148 40.2845L95.7543 38.6866C94.8353 36.9798 92.3562 37.0737 91.5688 38.8451C91.523 38.9482 91.4697 39.0479 91.4095 39.1433L88.3286 44.0214C86.937 46.2247 83.7959 46.4172 82.1457 44.4003C81.4205 43.514 80.3359 43 79.1908 43H78.3313C76.9757 43 75.8086 42.0432 75.5428 40.714L74.0489 33.2445C73.7335 31.6673 71.466 31.7038 71.2016 33.2904L71.1371 33.6776C71.058 34.1522 70.6474 34.5 70.1663 34.5C69.7639 34.5 69.402 34.745 69.2525 35.1186L68.2889 37.5278C67.3009 39.9977 64.4977 41.1991 62.0278 40.2111L59.734 39.2936C59.2497 39.0999 58.8098 38.8098 58.441 38.441L56.4304 36.4304C55.9285 35.9285 55.1056 35.9601 54.6437 36.4991C53.9074 37.358 52.5 36.8373 52.5 35.7061V29.9241C52.5 29.0344 52.0554 28.2036 51.3151 27.7101L50.1796 26.9531C49.7845 26.6896 49.2583 26.7417 48.9224 27.0776C48.4579 27.5421 47.6787 27.4378 47.3528 26.8674L46.0617 24.6079C46.0206 24.5361 45.9858 24.4609 45.9575 24.3832C45.4418 22.9649 43.3742 23.1722 43.1503 24.6647L41.7408 34.0616C41.4749 35.834 39.1777 36.3678 38.1575 34.8942C37.3624 33.7457 35.6596 33.7606 34.8847 34.9229L33.7079 36.6882C32.86 37.96 30.9054 37.6215 30.5346 36.1385C30.5116 36.0463 30.496 35.9524 30.4881 35.8577L28.5108 12.13C28.5036 12.0437 28.4853 11.9587 28.4561 11.8771C28.0655 10.7834 26.4375 11.1255 26.5203 12.284L26.7596 15.6338C26.8219 16.5061 25.6749 16.8798 25.2114 16.1382C24.8828 15.6125 24.1172 15.6125 23.7886 16.1382L23.7136 16.2582C23.2199 17.0482 22 16.6983 22 15.7667V1.75C22 0.783502 21.2165 0 20.25 0C19.2835 0 18.5 0.783502 18.5 1.75V9.65033C18.5 10.4264 17.4712 10.6996 17.0862 10.0258C16.8123 9.54656 16.1341 9.51225 15.8133 9.96139L15.6663 10.1671C15.1468 10.8944 14 10.5269 14 9.63314V7.07086C14 5.41425 11.8876 4.71592 10.8706 6.02357C10.6316 6.33075 10.5 6.71128 10.5 7.10044V30.7532C10.5 31.5515 10.1829 32.3171 9.61839 32.8816C8.11946 34.3805 5.58202 33.9018 4.73236 31.9597L3.36754 28.8401C3.12514 28.286 3 27.6878 3 27.083V19.5178C3 18.4041 1.65357 17.8464 0.866116 18.6339C0.631696 18.8683 0.5 19.1862 0.5 19.5178Z" fill="#A5CEBE" fill-opacity="0.4"/>
</svg>
