<svg width="141" height="32" viewBox="0 0 141 32" fill="none" xmlns="http://www.w3.org/2000/svg">
<path d="M13.9431 16.8018L12.059 15.5479C9.69604 13.9753 6.49936 14.6829 5.02078 17.1058L0.731941 24.1339C0.253252 24.9183 0 25.8195 0 26.7385V27C0 29.7614 2.23858 32 5 32H140.514C140.172 32 139.831 31.9649 139.496 31.8953L123.399 28.5484C121.863 28.229 120.761 26.8751 120.761 25.3059V1.68056C120.761 0.609458 119.217 0.451182 119 1.5L118.245 11.9375C118.21 12.425 117.507 12.4594 117.425 11.9776C117.346 11.5159 116.681 11.5203 116.608 11.9829L116.5 12.6667L115.882 23.2903C115.728 25.9345 113.539 28 110.89 28H98.9842C96.514 28 94.414 26.1961 94.0414 23.7541L93.0261 17.0988C92.8712 16.0834 91.998 15.3333 90.9709 15.3333H90.2252C89.4888 15.3333 88.8919 15.9303 88.8919 16.6667C88.8919 17.403 88.2949 18 87.5586 18H87.083C86.3033 18 85.6712 17.3679 85.6712 16.5882V15.744C85.6712 14.7058 84.3714 14.2379 83.7096 15.0378C83.169 15.6913 82.1246 15.5199 81.8213 14.7279L79.5665 8.84029C79.5223 8.72485 79.4663 8.61426 79.3995 8.51027C78.4653 7.05718 76.2197 7.62357 76.0864 9.34588L74.8075 25.8781C74.7851 26.1679 74.3895 26.234 74.2741 25.9671C74.1746 25.737 73.8456 25.7452 73.7575 25.9799L73.3223 27.1404C73.2239 27.4031 72.8454 27.3815 72.7773 27.1094L72.7428 26.9713C72.6796 26.7185 72.3204 26.7185 72.2572 26.9713C72.1931 27.2276 71.8273 27.2228 71.77 26.9649L71.5485 25.9684C71.4314 25.4412 70.6731 25.4615 70.5843 25.9942L70.1413 28.652C70.0598 29.1413 69.6364 29.5 69.1403 29.5H55.3858C54.8841 29.5 54.4652 29.1175 54.4198 28.6179L54.1489 25.6384C54.1152 25.2671 53.5976 25.2071 53.4798 25.5607C53.3639 25.9083 52.8573 25.8582 52.8118 25.4946L52.6102 23.8816C52.5722 23.5777 52.1771 23.4844 52.0072 23.7392C51.8356 23.9966 51.4361 23.8984 51.4034 23.5908L50.7198 17.154C50.5787 15.8251 48.7955 15.4938 48.1864 16.6832C47.6888 17.6549 46.3018 17.6597 45.7975 16.6915L45.2138 15.5709C45.1317 15.4132 45.071 15.2453 45.0333 15.0715L44.562 12.898C44.2128 11.2873 42.0262 11.0236 41.304 12.5051C41.2516 12.6125 41.2105 12.7251 41.1812 12.8409L39.5 19.5C38.9 21.3 37.2355 22.5304 35.3386 22.576L35.2135 22.579C33.068 22.6305 31.1625 21.2156 30.5914 19.1468L27.7527 8.8642C27.7164 8.73275 27.669 8.60465 27.6109 8.48129C26.7577 6.67014 24.1903 6.64503 23.3019 8.43913L23.2741 8.49524C23.2176 8.60935 23.1702 8.72773 23.1323 8.84929L21.4867 14.1275C20.4938 17.3122 16.7202 18.65 13.9431 16.8018Z" fill="#F1F2F3"/>
</svg>
