<?xml version="1.0" encoding="utf-8"?>
<!-- Generator: Adobe Illustrator 25.2.0, SVG Export Plug-In . SVG Version: 6.00 Build 0)  -->
<svg version="1.1" id="Layer_1" xmlns="http://www.w3.org/2000/svg" xmlns:xlink="http://www.w3.org/1999/xlink" x="0px" y="0px"
	 viewBox="0 0 1555 366" style="enable-background:new 0 0 1555 366;" xml:space="preserve">
<style type="text/css">
	.st0{fill:#44C0F0;}
</style>
<g id="e-mærket">
	<path class="st0" d="M757.6,251.2c-14.9,0-26.9-4.7-36.1-14c-9.2-9.3-13.8-21.8-13.8-37.4v-2.9c-0.2-9.6,1.9-19.2,6-27.9
		c3.7-7.9,9.6-14.5,16.9-19.1c7.3-4.6,15.7-7,24.4-6.9c14.2,0,25.2,4.5,33,13.6s11.7,21.9,11.6,38.5v9.4h-68.3
		c0.7,8.6,3.6,15.4,8.6,20.5s11.4,7.5,19.1,7.5c10.7,0,19.5-4.3,26.2-13l12.6,12.1c-4.2,6.2-10,11.3-16.7,14.5
		C773.8,249.6,765.7,251.3,757.6,251.2z M754.8,161.8c-6.4,0-11.6,2.3-15.6,6.8s-6.5,10.8-7.6,18.8h44.7v-1.7
		c-0.5-7.8-2.6-13.8-6.3-17.8C766.4,163.8,761.3,161.8,754.8,161.8z"/>
	<path class="st0" d="M863.2,199h-50.7v-18.9h50.7V199z"/>
	<path class="st0" d="M904.5,144.9l0.7,10.9c7.3-8.5,17.4-12.8,30.1-12.8c14,0,23.5,5.3,28.7,16c7.6-10.7,18.3-16,32-16
		c11.5,0,20.1,3.2,25.7,9.6c5.6,6.4,8.5,15.8,8.6,28.2v68.6h-23.4v-67.9c0-6.6-1.4-11.5-4.3-14.6c-2.9-3.1-7.7-4.6-14.4-4.6
		c-5.3,0-9.7,1.4-13.1,4.3c-3.4,3-5.9,6.9-7.1,11.2l0.1,71.6h-23.4v-68.7c-0.3-12.3-6.6-18.4-18.8-18.4c-9.4,0-16.1,3.8-20,11.5
		v75.6h-23.4V144.9H904.5z"/>
	<path class="st0" d="M1163.4,251.2c-16.3,0-28.9-5.2-37.9-15.5c-4.5,5.2-10.2,9.1-16.6,11.5c-7.4,2.8-15.3,4.2-23.2,4.1
		c-11.3,0-20.2-2.8-26.6-8.5s-9.6-13.5-9.7-23.5c0-10.2,3.8-18,11.5-23.5s19-8.3,34-8.3h18.4v-6.9c0-5.9-1.5-10.4-4.6-13.8
		c-3.1-3.3-7.4-5-13.1-5c-5.8,0-10.6,1.4-14.3,4.3s-5.6,6.4-5.6,10.7l-23.3-1.8c0-9.4,4.1-17.1,12.2-23s18.5-8.9,31.2-8.9
		c14.3,0,25.1,4.3,32.2,12.8c8.4-8.7,19.1-12.9,31.9-12.8c13.6,0,24.3,4.2,31.9,12.5c7.7,8.3,11.5,20.1,11.5,35.2v13.2h-67
		c0.6,8.9,3.3,15.9,8.2,21c4.9,5.1,11.6,7.6,20.3,7.6c8.2,0.2,16.3-1.8,23.5-5.6l5.9-3.3l7,16c-5,3.9-10.7,6.7-16.8,8.5
		C1177.6,250.2,1170.5,251.2,1163.4,251.2z M1090.2,233.5c4.2-0.1,8.3-1.1,12.2-2.9c4-1.7,7.7-4,10.9-7v-20.2h-18.9
		c-6.7,0.1-11.9,1.7-15.8,4.8c-3.9,3.1-5.8,6.8-5.8,11.3c-0.1,3.9,1.5,7.6,4.5,10.1C1080.2,232.2,1084.5,233.5,1090.2,233.5z
		 M1159.9,161.8c-5.9-0.2-11.7,2.3-15.7,6.7c-4.1,4.4-6.6,10.7-7.7,18.9h43.6v-2.9c0-7.3-1.8-12.9-5.2-16.8
		C1171.4,163.7,1166.4,161.8,1159.9,161.8z"/>
	<path class="st0" d="M1275.9,166.3c-3.2-0.5-6.4-0.8-9.6-0.8c-10.7,0-18,4.1-21.7,12.4v71.4h-23.4V144.9h22.4l0.6,11.7
		c5.7-9.1,13.5-13.6,23.5-13.6c2.8-0.1,5.6,0.4,8.3,1.4L1275.9,166.3z"/>
	<path class="st0" d="M1324.6,204.5l-10.4,10.7v34.1h-23.4V101.1h23.4v85.5l7.3-9.2l28.8-32.5h28.2l-38.8,43.5l42.9,60.9h-27.1
		L1324.6,204.5z"/>
	<path class="st0" d="M1437.9,251.2c-14.9,0-26.9-4.7-36.1-14c-9.2-9.3-13.8-21.8-13.8-37.4v-2.9c-0.2-9.6,1.9-19.2,6-27.9
		c3.7-7.9,9.6-14.5,16.9-19.1c7.3-4.6,15.7-7,24.3-6.9c14.2,0,25.2,4.5,32.9,13.6c7.7,9.1,11.6,21.9,11.6,38.5v9.4h-68.2
		c0.7,8.6,3.6,15.4,8.6,20.5s11.4,7.5,19.1,7.5c10.7,0,19.5-4.3,26.2-13l12.6,12.1c-4.2,6.2-10,11.3-16.7,14.5
		C1454,249.6,1446,251.3,1437.9,251.2z M1435.1,161.8c-6.4,0-11.6,2.3-15.6,6.8c-4,4.5-6.5,10.8-7.6,18.8h44.7v-1.7
		c-0.5-7.8-2.6-13.8-6.3-17.8S1441.6,161.8,1435.1,161.8z"/>
	<path class="st0" d="M1527.3,119.5v25.4h18.4v17.4h-18.4v58.3c0,4,0.8,6.9,2.4,8.6s4.4,2.7,8.4,2.7c2.8,0,5.5-0.4,8.2-1V249
		c-5,1.4-10.2,2.2-15.4,2.2c-18,0-27-9.9-27-29.8v-59.2h-17.2v-17.4h17.2v-25.4H1527.3z"/>
</g>
<g id="Ikon">
	<path class="st0" d="M81.6,171.3H13c-3.7,0-6.7-3-6.7-6.6c0-1.2,0.3-2.4,1-3.5c10.1-16.5,34.8-50.8,81.8-85.1l0.1-0.1
		c1.6-1.4,51.1-44.6,138.3-62.4c0,0,121.1-28.5,238,25.7c0,0,97.9,48.8,138.7,122.1c1.8,3.2,0.6,7.3-2.6,9c-1,0.5-2.1,0.8-3.2,0.8
		h-29.2c-9.5,0-18.3-5.1-23.1-13.3c-8.6-15.1-27.6-41.4-66.5-69.3c0,0-70.3-51.9-180.7-41c0,0-62.9,4.6-114.9,37.2l-0.1,0.1
		c-1.4,0.7-33,16.4-79,75.1C99.3,167.1,90.7,171.3,81.6,171.3z"/>
	<path class="st0" d="M529.4,198.3H598c3.7,0,6.7,3,6.7,6.7c0,1.2-0.3,2.4-1,3.5c-10.1,16.5-34.8,50.8-81.7,85.1l-0.1,0.1
		c-2,1.8-51.5,44.7-138.3,62.4c0,0-121,28.5-238-25.7c0,0-97.8-48.9-138.7-122.1c-1.8-3.2-0.6-7.3,2.6-9c1-0.5,2.1-0.8,3.2-0.8h29.3
		c9.5,0,18.3,5.1,23.1,13.3c8.6,15.1,27.6,41.4,66.6,69.3c0,0,70.3,51.9,180.7,41c0,0,62.9-4.6,114.8-37.1l0.2-0.1
		c1.9-0.9,33.3-16.8,79-75.1C511.8,202.5,520.3,198.3,529.4,198.3z"/>
	<path class="st0" d="M375,213.9c-7.7,0-14.9,3.8-19.2,10.1c-7.5,10.9-18.3,19.1-30.9,23.2c0,0-37.8,13.6-65.6-18.2l143.1-64.2
		c5.7-2.6,8.4-9.2,6.2-15.1c-16.6-43.4-58.9-71.4-105.2-69.8c-57.2,1.9-103.5,48.7-104.9,105.9c-1.5,60,46,109.8,106,111.3
		c48.4,1.2,91.7-29.7,106.3-75.8c1-3.1-0.8-6.4-3.9-7.4c-0.6-0.2-1.2-0.3-1.8-0.3L375,213.9z M244.6,189.3c0-33.7,27.3-61,61-61
		c18.1,0,35.3,8.1,46.9,22l-107.2,48.4C244.9,195.6,244.6,192.5,244.6,189.3L244.6,189.3z"/>
</g>
</svg>
