<svg xmlns="http://www.w3.org/2000/svg" fill="#007476"  viewBox="0 0 370 220"><defs><clipPath id="a"><path d="M254.05,0 C262.706874,0.0165243029 269.718995,7.03311725 269.73,15.69 L269.73,176.9 C269.718971,185.559156 262.699162,192.574492 254.04,192.58 L241.64,192.58 C240.049241,207.969675 227.081672,219.665938 211.61,219.665938 C196.138328,219.665938 183.170759,207.969675 181.58,192.58 L87.58,192.58 C85.9662817,207.954073 73.0035316,219.627418 57.545,219.627418 C42.0864684,219.627418 29.1237183,207.954073 27.51,192.58 L14.91,192.58 C6.68000226,192.568983 0.0110174147,185.899998 0,177.67 L0,108.12 C0.00787953517,99.5179485 2.96974586,91.1795358 8.39,84.5 L40.23,45.34 C45.6401372,38.6518404 53.7876298,34.7729574 62.39,34.79 L103.21,34.79 L103.21,15.69 C103.221019,7.02922052 110.239221,0.0110188168 118.9,0 L254.05,0 Z M39.0208734,170.960873 C31.5305859,178.451161 29.2898807,189.715947 33.343595,199.502479 C37.3973094,209.289011 46.9471338,215.67 57.54,215.67 C71.9974842,215.653468 83.7134677,203.937484 83.73,189.48 C83.73,178.887134 77.3490114,169.337309 67.5624791,165.283595 C57.7759468,161.229881 46.5111609,163.470586 39.0208734,170.960873 Z M193.100873,170.960873 C185.610586,178.451161 183.369881,189.715947 187.423595,199.502479 C191.477309,209.289011 201.027134,215.67 211.62,215.67 C226.077484,215.653468 237.793468,203.937484 237.81,189.48 C237.81,178.887134 231.429011,169.337309 221.642479,165.283595 C211.855947,161.229881 200.591161,163.470586 193.100873,170.960873 Z M369.28,189.83 L369.28,193.83 L333.28,193.83 L333.28,189.83 L369.28,189.83 Z M103.21,38.7899762 L62.39,38.7899762 C54.9929306,38.7796968 47.9875233,42.1133297 43.33,47.86 L11.49,87 C6.6479849,92.9743053 4.00392659,100.429914 4,108.12 L4,177.67 C4.00551318,183.693142 8.88685849,188.574487 14.91,188.58 L27.38,188.58 C27.8937706,172.290554 41.2474536,159.351407 57.545,159.351407 C73.8425464,159.351407 87.1962294,172.290554 87.71,188.58 L103.21,188.58 L103.21,38.7899762 Z M254.05,4 L118.9,4 C112.446077,4.00551382 107.215514,9.23607655 107.21,15.69 L107.21,188.58 L181.45,188.58 C181.871254,172.22008 195.254657,159.176853 211.62,159.176853 C227.985343,159.176853 241.368746,172.22008 241.79,188.58 L254.05,188.58 C260.500025,188.574497 265.728977,183.350018 265.74,176.9 L265.74,15.69 C265.734486,9.23607655 260.503923,4.00551382 254.05,4 Z M359.29,170.06 L359.29,174.06 L291.48,174.06 L291.48,170.06 L359.29,170.06 Z M324.76,153.95 L324.76,157.95 L304.11,157.95 L304.11,153.95 L324.76,153.95 Z M186.17,26.31 L189,29.13 L175.159996,43 L186.48,43 C206.025435,43.0000017 223.645925,54.7749569 231.123769,72.8333589 C238.601614,90.8917609 234.463893,111.676623 220.640322,125.494471 C206.816752,139.31232 186.030179,143.441436 167.974874,135.956116 C149.919569,128.470796 138.15191,110.845434 138.159996,91.3 L142.159996,91.3 C142.154478,115.771736 161.988263,135.614475 186.459999,135.619998 C210.931736,135.62552 230.774475,115.791736 230.779998,91.3199992 C230.785521,66.8482629 210.951736,47.0055235 186.48,47 L175.159996,47 L189,60.84 L186.19,63.68 L167.51,45 L186.17,26.31 Z M82.6,54.31 C87.018278,54.31 90.6,57.891722 90.6,62.31 L90.6,88 C90.5889797,93.6823423 85.9823504,98.2844992 80.3,98.29 L38.79,98.29 C35.6482591,98.29 32.7686155,96.5383737 31.3233394,93.7488015 C29.8780634,90.9592293 30.1081756,87.5966765 31.92,85.03 L32,84.93 L53,58.81 C55.2735143,55.9703736 58.7123748,54.3153071 62.35,54.31 L82.6,54.31 Z M82.61,58.3299859 L62.34,58.3299859 C59.9055672,58.3254382 57.6015189,59.4296147 56.08,61.33 L35.08,87.39 C34.1582317,88.7418734 34.0586953,90.4923658 34.8212773,91.9400146 C35.5838593,93.3876633 37.0837852,94.2956026 38.72,94.3 L80.33,94.3 C83.8071107,94.2944939 86.6244939,91.4771107 86.63,88 L86.63,62.31 L86.6,62.31 C86.5890195,60.1125708 84.8074498,58.3354662 82.61,58.3299859 Z"/></clipPath></defs><g clip-path="url(#a)"><polygon points="0 0 369.28 0 369.28 219.666 0 219.666 0 0"/></g></svg>