<svg width="32" height="32" viewBox="0 0 32 32" fill="none" xmlns="http://www.w3.org/2000/svg">
<path d="M0 16C0 7.16344 7.16344 0 16 0V0C24.8366 0 32 7.16344 32 16V16C32 24.8366 24.8366 32 16 32V32C7.16344 32 0 24.8366 0 16V16Z" fill="white"/>
<path fill-rule="evenodd" clip-rule="evenodd" d="M14.0316 11.3985C14.0316 12.176 13.4464 12.798 12.5068 12.798H12.4896C11.5849 12.798 11 12.176 11 11.3985C11 10.6047 11.6027 10 12.5245 10C13.4464 10 14.0141 10.6047 14.0316 11.3985ZM13.8539 13.9031V21.9998H11.1592V13.9031H13.8539ZM23.5725 21.9998L23.5726 17.3574C23.5726 14.8705 22.2432 13.713 20.47 13.713C19.0392 13.713 18.3986 14.4989 18.041 15.0502V13.9034H15.3459C15.3814 14.6631 15.3459 22 15.3459 22H18.041V17.4782C18.041 17.2362 18.0585 16.9948 18.1297 16.8216C18.3245 16.3381 18.7679 15.8376 19.5124 15.8376C20.4879 15.8376 20.8779 16.5801 20.8779 17.6681V21.9998H23.5725Z" fill="#0077B5"/>
</svg>
