<svg width="24" height="24" viewBox="0 0 24 24" fill="none" xmlns="http://www.w3.org/2000/svg">
<path d="M11.2745 15.3906C11.2745 15.2557 11.1651 15.1456 11.0295 15.1456H5.49568C5.62297 12.7322 7.62648 10.8087 10.0701 10.8087C10.9528 10.8087 11.81 11.0601 12.5482 11.5366C12.662 11.6096 12.813 11.5776 12.8866 11.4637C12.9601 11.3499 12.9269 11.1983 12.8137 11.1253C11.9961 10.5982 11.0475 10.3193 10.0701 10.3193C7.27475 10.3193 5 12.5947 5 15.3907C5 15.5257 5.10938 15.6357 5.245 15.6357H11.0302C11.1645 15.6351 11.2746 15.5257 11.2746 15.3907L11.2745 15.3906Z" fill="#7BA393" stroke="#7BA393" stroke-width="0.3"/>
<path d="M9.98463 9.86511C11.6024 9.86511 12.9182 8.54929 12.9182 6.93157C12.9182 5.31511 11.6024 4 9.98463 4C8.36817 4 7.05371 5.31516 7.05371 6.93157C7.05371 8.54931 8.36824 9.86511 9.98463 9.86511ZM9.98463 4.48931C11.3318 4.48931 12.4282 5.58507 12.4282 6.93157C12.4282 8.27937 11.3318 9.37581 9.98463 9.37581C8.63811 9.37581 7.54302 8.27941 7.54302 6.93157C7.54302 5.58505 8.63878 4.48931 9.98463 4.48931Z" fill="#7BA393" stroke="#7BA393" stroke-width="0.3"/>
<path d="M18.0557 18.2694L16.36 15.8023C16.6837 15.3762 16.8628 14.8619 16.8666 14.3182C16.8769 12.9436 15.7664 11.8172 14.3918 11.8062C13.0222 11.7998 11.8901 12.9083 11.8804 14.283C11.8766 14.8408 12.0595 15.3551 12.3672 15.7734L10.6343 18.2164C10.5761 18.2989 10.5742 18.4083 10.6298 18.4927C10.6855 18.5772 10.7866 18.6187 10.8851 18.5976L12.2559 18.3046L12.4971 19.593C12.5163 19.6947 12.5975 19.774 12.6998 19.79C12.7126 19.7919 12.7254 19.7932 12.7376 19.7932C12.8265 19.7932 12.9097 19.7445 12.9525 19.6646L14.354 17.0707L15.7191 19.6837C15.762 19.7656 15.8458 19.8155 15.936 19.8155C15.9475 19.8155 15.959 19.8149 15.9705 19.813C16.0728 19.7983 16.1554 19.7209 16.1758 19.6191L16.4355 18.3353L17.8 18.6475C17.8978 18.6699 18.0008 18.6302 18.0571 18.5464C18.1134 18.462 18.1134 18.3519 18.0558 18.2694L18.0557 18.2694ZM14.3749 12.2961H14.3877C15.4925 12.3044 16.3847 13.2101 16.3766 14.3149C16.3734 14.8496 16.161 15.3511 15.7797 15.7266C15.4017 16.0989 14.9034 16.303 14.3737 16.303H14.3584C13.2537 16.2953 12.3614 15.3908 12.3691 14.2861C12.3774 13.1859 13.2761 12.2962 14.3751 12.2962L14.3749 12.2961ZM12.85 18.8221L12.69 17.9668C12.6779 17.9022 12.6401 17.8447 12.5851 17.8082C12.5301 17.7711 12.4623 17.7583 12.3984 17.7724L11.396 17.9867L12.7022 16.1451C13.0489 16.4591 13.4839 16.6766 13.9662 16.756L12.85 18.8221ZM16.299 17.8005C16.2344 17.7858 16.1672 17.798 16.1116 17.8332C16.0559 17.869 16.0175 17.9259 16.0041 17.9905L15.832 18.8432L14.7452 16.7617C15.2173 16.6913 15.6555 16.4879 16.0182 16.1687L17.2969 18.0282L16.299 17.8005Z" fill="#7BA393" stroke="#7BA393" stroke-width="0.3"/>
</svg>
