<svg width="24" height="24" viewBox="0 0 24 24" fill="none" xmlns="http://www.w3.org/2000/svg">
<path d="M9.99994 5C8.66791 5 7.46095 5.27469 6.55729 5.74891C5.65363 6.22313 5 6.93038 5 7.80435V16.201C5 17.0668 5.64648 17.7706 6.55207 18.2456C7.45767 18.7206 8.66673 19 10.0001 19C11.1205 19 12.1517 18.7991 12.9897 18.4533C13.6447 18.8018 14.3836 19 15.1667 19C17.832 19 20 16.7245 20 13.927C20 11.1295 17.832 8.85402 15.1667 8.85402C15.1094 8.85402 15.0515 8.85744 14.9948 8.85949V7.80444C14.9948 6.93047 14.3464 6.22323 13.4428 5.74901C12.5391 5.27479 11.3321 5.0001 10.0001 5.0001L9.99994 5ZM9.99994 5.70518C11.2454 5.70518 12.3711 5.97646 13.1563 6.38849C13.9414 6.80053 14.3385 7.32534 14.3385 7.80435C14.1836 8.54712 13.6647 8.95642 13.1563 9.21473C12.3711 9.62678 11.2454 9.89804 9.99994 9.89804C8.75445 9.89804 7.62879 9.62676 6.84362 9.21473C6.26159 8.89835 5.7323 8.41592 5.66133 7.80435C5.66133 7.32534 6.05846 6.80054 6.84362 6.38849C7.62879 5.97645 8.75445 5.70518 9.99994 5.70518ZM5.66663 9.22566C5.91338 9.46414 6.21871 9.67665 6.55726 9.85433C7.4609 10.3285 8.66791 10.6032 9.99991 10.6032C10.5774 10.6032 11.1294 10.5472 11.6457 10.4502C11.2525 10.8889 10.9342 11.4014 10.7082 11.9644C10.4778 11.9856 10.2414 12.0027 9.99991 12.0027C8.75643 12.0027 7.63275 11.7307 6.84892 11.3194C6.06509 10.908 5.66663 10.3907 5.66663 9.90351V9.22566ZM15.1666 9.55366C17.4719 9.55366 19.3332 11.5073 19.3332 13.9269C19.3332 16.3466 17.4719 18.3002 15.1666 18.3002C12.8613 18.3002 10.9999 16.3466 10.9999 13.9269C10.9999 11.5073 12.8613 9.55366 15.1666 9.55366ZM5.66663 11.3248C5.91208 11.5619 6.21481 11.771 6.55204 11.948C7.45699 12.4229 8.66603 12.7024 10 12.7024C10.1628 12.7024 10.321 12.6942 10.4792 12.686C10.3841 13.083 10.3334 13.4992 10.3334 13.9269C10.3334 13.9836 10.3366 14.0404 10.3386 14.0964C10.2266 14.1012 10.1146 14.1019 10 14.1019C8.75655 14.1019 7.63288 13.8299 6.84905 13.4185C6.06522 13.0072 5.66675 12.4899 5.66675 12.0027L5.66663 11.3248ZM5.66663 13.424C5.91208 13.6611 6.21481 13.8702 6.55204 14.0472C7.45699 14.5221 8.66603 14.8016 10 14.8016C10.1367 14.8016 10.2728 14.7975 10.4063 14.7906C10.4857 15.2724 10.6289 15.7316 10.8281 16.1573C10.5593 16.1853 10.2845 16.201 10 16.201C8.75653 16.201 7.63285 15.9291 6.84902 15.5177C6.06519 15.1064 5.66673 14.5891 5.66673 14.1019L5.66663 13.424ZM5.66663 15.5232C5.91208 15.7603 6.21481 15.9694 6.55204 16.1464C7.45699 16.6213 8.66603 16.9007 10 16.9007C10.4154 16.9007 10.8184 16.8761 11.2031 16.8242C11.4961 17.2649 11.8522 17.649 12.2604 17.9722C11.6029 18.1751 10.8288 18.3002 10.0001 18.3002C8.75665 18.3002 7.63364 18.0282 6.84914 17.6169C6.06464 17.2055 5.66685 16.6882 5.66685 16.201L5.66663 15.5232Z" fill="#7BA393"/>
</svg>
