<svg width="24" height="24" viewBox="0 0 24 24" fill="none" xmlns="http://www.w3.org/2000/svg">
<path fill-rule="evenodd" clip-rule="evenodd" d="M12.2586 7.24282C13.1529 6.44708 14.3659 6 15.6308 6C16.8958 6 18.1088 6.44708 19.0031 7.24282C19.8975 8.03797 20.4001 9.11695 20.4001 10.242C20.4001 11.3671 19.8975 12.4461 19.0029 13.2414L12.5186 19.0089C12.2321 19.2637 11.7677 19.2637 11.4812 19.0089L4.99686 13.2414C3.13451 11.5849 3.13451 8.89919 4.99686 7.24271C6.85922 5.58623 9.87869 5.58623 11.741 7.24271L11.9999 7.47295L12.2586 7.24282ZM11.9999 17.6249L17.1881 13.0103L17.9657 12.3186C18.5851 11.7679 18.9331 11.0209 18.9331 10.242C18.9331 9.46313 18.5851 8.71615 17.9657 8.1655C17.3464 7.61439 16.5066 7.30488 15.6309 7.30488C14.7552 7.30488 13.9153 7.61439 13.2961 8.1654L12.5186 8.85698C12.2321 9.11177 11.7677 9.11177 11.4812 8.85698L10.7037 8.1654C9.41427 7.0185 7.32368 7.0185 6.03425 8.1654C4.74481 9.31229 4.74481 11.1718 6.03425 12.3187L11.9999 17.6249Z" fill="#7BA393"/>
<mask id="mask0_4748_292" style="mask-type:alpha" maskUnits="userSpaceOnUse" x="3" y="6" width="18" height="14">
<path fill-rule="evenodd" clip-rule="evenodd" d="M12.2586 7.24282C13.1529 6.44708 14.3659 6 15.6308 6C16.8958 6 18.1088 6.44708 19.0031 7.24282C19.8975 8.03797 20.4001 9.11695 20.4001 10.242C20.4001 11.3671 19.8975 12.4461 19.0029 13.2414L12.5186 19.0089C12.2321 19.2637 11.7677 19.2637 11.4812 19.0089L4.99686 13.2414C3.13451 11.5849 3.13451 8.89919 4.99686 7.24271C6.85922 5.58623 9.87869 5.58623 11.741 7.24271L11.9999 7.47295L12.2586 7.24282ZM11.9999 17.6249L17.1881 13.0103L17.9657 12.3186C18.5851 11.7679 18.9331 11.0209 18.9331 10.242C18.9331 9.46313 18.5851 8.71615 17.9657 8.1655C17.3464 7.61439 16.5066 7.30488 15.6309 7.30488C14.7552 7.30488 13.9153 7.61439 13.2961 8.1654L12.5186 8.85698C12.2321 9.11177 11.7677 9.11177 11.4812 8.85698L10.7037 8.1654C9.41427 7.0185 7.32368 7.0185 6.03425 8.1654C4.74481 9.31229 4.74481 11.1718 6.03425 12.3187L11.9999 17.6249Z" fill="white"/>
</mask>
<g mask="url(#mask0_4748_292)">
</g>
</svg>
