<svg width="32" height="32" viewBox="0 0 32 32" fill="none" xmlns="http://www.w3.org/2000/svg">
<path d="M0 16C0 7.16344 7.16344 0 16 0V0C24.8366 0 32 7.16344 32 16V16C32 24.8366 24.8366 32 16 32V32C7.16344 32 0 24.8366 0 16V16Z" fill="white"/>
<path d="M18.4251 10H13.5749C11.6037 10 10 11.6037 10 13.5749V18.4251C10 20.3963 11.6037 22 13.5749 22H18.4251C20.3963 22 22 20.3963 22 18.4251V13.5749C22 11.6037 20.3963 10 18.4251 10ZM20.7928 18.4251C20.7928 19.7327 19.7327 20.7928 18.4251 20.7928H13.5749C12.2673 20.7928 11.2072 19.7327 11.2072 18.4251V13.5749C11.2072 12.2672 12.2673 11.2072 13.5749 11.2072H18.4251C19.7327 11.2072 20.7928 12.2672 20.7928 13.5749V18.4251Z" fill="url(#paint0_linear_25183_20554)"/>
<path d="M16.0001 12.8965C14.2888 12.8965 12.8965 14.2888 12.8965 16.0001C12.8965 17.7114 14.2888 19.1037 16.0001 19.1037C17.7115 19.1037 19.1037 17.7114 19.1037 16.0001C19.1037 14.2887 17.7115 12.8965 16.0001 12.8965ZM16.0001 17.8965C14.9527 17.8965 14.1037 17.0475 14.1037 16.0001C14.1037 14.9527 14.9528 14.1037 16.0001 14.1037C17.0475 14.1037 17.8965 14.9527 17.8965 16.0001C17.8965 17.0475 17.0475 17.8965 16.0001 17.8965Z" fill="url(#paint1_linear_25183_20554)"/>
<path d="M19.1089 13.6632C19.5197 13.6632 19.8526 13.3302 19.8526 12.9195C19.8526 12.5087 19.5197 12.1758 19.1089 12.1758C18.6982 12.1758 18.3652 12.5087 18.3652 12.9195C18.3652 13.3302 18.6982 13.6632 19.1089 13.6632Z" fill="url(#paint2_linear_25183_20554)"/>
<defs>
<linearGradient id="paint0_linear_25183_20554" x1="16" y1="21.9651" x2="16" y2="10.0932" gradientUnits="userSpaceOnUse">
<stop stop-color="#E09B3D"/>
<stop offset="0.3" stop-color="#C74C4D"/>
<stop offset="0.6" stop-color="#C21975"/>
<stop offset="1" stop-color="#7024C4"/>
</linearGradient>
<linearGradient id="paint1_linear_25183_20554" x1="16.0001" y1="21.9652" x2="16.0001" y2="10.0933" gradientUnits="userSpaceOnUse">
<stop stop-color="#E09B3D"/>
<stop offset="0.3" stop-color="#C74C4D"/>
<stop offset="0.6" stop-color="#C21975"/>
<stop offset="1" stop-color="#7024C4"/>
</linearGradient>
<linearGradient id="paint2_linear_25183_20554" x1="19.1089" y1="21.9649" x2="19.1089" y2="10.093" gradientUnits="userSpaceOnUse">
<stop stop-color="#E09B3D"/>
<stop offset="0.3" stop-color="#C74C4D"/>
<stop offset="0.6" stop-color="#C21975"/>
<stop offset="1" stop-color="#7024C4"/>
</linearGradient>
</defs>
</svg>
