<svg width="24" height="24" viewBox="0 0 24 24" fill="none" xmlns="http://www.w3.org/2000/svg">
<path d="M17.3864 17.0454H6.88641C6.09592 17.0454 5.45459 16.4041 5.45459 15.6136V7.97723C5.45459 7.18674 6.09592 6.54541 6.88641 6.54541H17.3864C18.1769 6.54541 18.8182 7.18674 18.8182 7.97723V15.6136C18.8182 16.4041 18.1769 17.0454 17.3864 17.0454ZM6.88641 7.49996C6.62271 7.49996 6.40914 7.71353 6.40914 7.97723V15.6136C6.40914 15.7401 6.45925 15.8618 6.54874 15.9513C6.63823 16.0407 6.75993 16.0909 6.8864 16.0909H17.3864C17.5129 16.0909 17.6346 16.0407 17.7241 15.9513C17.8136 15.8618 17.8637 15.7401 17.8637 15.6136V7.97723C17.8637 7.85075 17.8136 7.72905 17.7241 7.63956C17.6346 7.55007 17.5129 7.49996 17.3864 7.49996L6.88641 7.49996Z" fill="#7BA393"/>
<path d="M12.1364 12.0245C11.8208 12.025 11.5135 11.9206 11.263 11.7285L5.96041 7.64783C5.75101 7.48674 5.71104 7.18667 5.87212 6.97726C6.0332 6.76786 6.33328 6.72789 6.54268 6.88897L11.8452 10.9697C12.017 11.1015 12.2557 11.1015 12.4275 10.9697L17.73 6.88897C17.9394 6.72788 18.2395 6.76786 18.4006 6.97726C18.5617 7.18666 18.5217 7.48674 18.3123 7.64783L13.0098 11.7285C12.7592 11.9206 12.452 12.025 12.1363 12.0245H12.1364Z" fill="#7BA393"/>
</svg>
