<svg width="24" height="24" viewBox="0 0 24 24" fill="none" xmlns="http://www.w3.org/2000/svg">
<path d="M15.0758 18.6798C14.6092 18.6798 14.1373 18.6207 13.6666 18.502C10.26 17.6441 5.39901 12.7831 4.54114 9.37655C4.19453 8.002 4.3574 6.61906 5.01066 5.37876C5.29523 4.83884 5.80293 4.47672 6.40429 4.38484C6.99968 4.29595 7.58793 4.48746 8.01511 4.91462L9.40874 6.30826C9.95762 6.85713 10.1163 7.69592 9.80428 8.39512C9.64081 8.76262 9.432 9.07404 9.18382 9.32163C9.01379 9.49226 8.97979 9.77384 9.083 10.1587C9.45825 11.5594 11.4831 13.5849 12.8845 13.9608C13.2699 14.064 13.5515 14.03 13.7216 13.8594C13.9697 13.6112 14.2818 13.4024 14.6487 13.2389C15.3479 12.9257 16.1866 13.0856 16.7355 13.6339L18.1292 15.0275C18.5563 15.4547 18.7496 16.0423 18.6589 16.6389C18.5677 17.2397 18.2055 17.748 17.665 18.032C16.8489 18.4627 15.9718 18.6798 15.0758 18.6798ZM6.68827 5.31799C6.64114 5.31799 6.59401 5.32157 6.54628 5.32873C6.24799 5.37407 5.99622 5.55425 5.85425 5.82331C5.30478 6.86733 5.17414 7.9847 5.46586 9.1439C6.24262 12.2288 10.8138 16.8006 13.8987 17.5767C15.0579 17.8691 16.1753 17.7378 17.2193 17.1883C17.4884 17.0464 17.6685 16.7946 17.7139 16.4963C17.7586 16.2034 17.6632 15.914 17.4526 15.7034L16.0589 14.3098C15.7881 14.0396 15.377 13.9596 15.0352 14.1111C14.7751 14.2275 14.5597 14.3695 14.3945 14.5347C14.0997 14.8294 13.5556 15.1289 12.6356 14.8831C10.8871 14.4148 8.62777 12.155 8.1589 10.4064C7.91251 9.48703 8.21259 8.94175 8.5073 8.64757C8.67255 8.48232 8.81454 8.26694 8.93028 8.00743C9.08241 7.66617 9.00247 7.25512 8.73161 6.98368L7.33976 5.58945C7.16318 5.41346 6.93168 5.31799 6.68827 5.31799Z" fill="#7BA393"/>
</svg>
